# xmcd CD database file
#
# Track frame offsets:
#	182
#	13895
#	28970
#	41795
#	62120
#	86345
#	104345
#	144095
#	167420
#	181895
#	196670
#	214520
#	227420
#	243620
#	260120
#
# Disc length: 3700 seconds
#
# Revision: 1
# Processed by: cddbd v1.5.2PL0 Copyright (c) Steve Scherf et al.
# Submitted via: CDex 1.77
#
DISCID=c70e720f
DTITLE=Romano Mussolini - Romano Mussolini con Nunzio Rotondo e Lilian Terry
DYEAR=1958
DGENRE=Jazz
TTITLE0=Gone with the wind
TTITLE1=Topsy
TTITLE2=You and the night and the music
TTITLE3=Line for lions
TTITLE4=You turned the tables on me polka dots and moonbeans
TTITLE5=There will never be another you
TTITLE6=Thaganoghi
TTITLE7=Noghitonghithagani
TTITLE8=I've got it bad and that ain't good
TTITLE9=St. Louis blues
TTITLE10=He's funny that way
TTITLE11=Jeepers! Creepers!
TTITLE12=Our love is here to stay
TTITLE13=It's autumn
TTITLE14=Love me or leave me
EXTD=YEAR: 1958
EXTT0=
EXTT1=
EXTT2=
EXTT3=
EXTT4=
EXTT5=
EXTT6=
EXTT7=
EXTT8=
EXTT9=
EXTT10=
EXTT11=
EXTT12=
EXTT13=
EXTT14=
PLAYORDER=
